<svg width="683" height="683" viewBox="0 0 683 683" fill="none" xmlns="http://www.w3.org/2000/svg">
<path d="M0 68.4776C112.768 68.4776 204.032 160.434 204.032 273.51C204.032 386.588 112.768 478.543 0 478.543M0 335.52C33.8301 335.52 61.0097 307.435 61.0097 273.51C61.0097 239.588 33.8301 212.501 0 212.501M682.108 409.532C647.107 420.609 609.764 426.535 571.091 426.535C368.414 426.535 204.032 262.96 204.032 60.4764C204.032 40.1521 205.851 19.8896 209.033 0.46681M437.069 0.46681C428.93 18.6984 424.067 39.2207 424.067 60.4764C424.067 141.47 490.021 206.5 571.091 206.5C615.401 206.5 655.193 187.502 682.108 156.492M36.0057 682.575C52.9755 529.229 183.018 409.532 341.054 409.532C499.088 409.532 629.134 529.229 646.103 682.575M427.068 682.575C413.513 648.631 379.871 624.566 341.054 624.566C302.235 624.566 268.598 648.631 255.041 682.575" stroke="url(#paint0_linear_1_999)" stroke-opacity="0.4" stroke-width="2.28986"/>
<defs>
<linearGradient id="paint0_linear_1_999" x1="682.109" y1="0.46687" x2="176.822" y2="520.632" gradientUnits="userSpaceOnUse">
<stop offset="0.653276" stop-color="white"/>
<stop offset="1" stop-color="white" stop-opacity="0"/>
</linearGradient>
</defs>
</svg>
