<svg width="16" height="16" viewBox="0 0 16 16" fill="none" xmlns="http://www.w3.org/2000/svg">
<path d="M4.9956 13.1944C6.25594 13.9238 7.73853 14.17 9.16697 13.887C10.5954 13.6041 11.8722 12.8113 12.7593 11.6565C13.6464 10.5017 14.0832 9.06365 13.9883 7.61055C13.8935 6.15745 13.2734 4.78843 12.2437 3.75875C11.214 2.72906 9.84503 2.10899 8.39193 2.01413C6.93882 1.91928 5.50082 2.35611 4.34601 3.2432C3.1912 4.13028 2.39841 5.40707 2.11545 6.83551C1.83249 8.26394 2.07868 9.74654 2.80811 11.0069L2.02623 13.3412C1.99685 13.4293 1.99259 13.5239 2.01392 13.6143C2.03525 13.7047 2.08133 13.7873 2.147 13.853C2.21266 13.9186 2.29532 13.9647 2.38571 13.9861C2.47609 14.0074 2.57063 14.0031 2.65873 13.9737L4.9956 13.1944Z" stroke="#53596C" stroke-linecap="round" stroke-linejoin="round"/>
</svg>
