<svg width="23" height="23" viewBox="0 0 23 23" fill="none" xmlns="http://www.w3.org/2000/svg">
<path d="M1.35499 8.36636C2.05082 9.57157 3.73801 10.1657 4.91212 9.48778C6.13907 8.7794 6.33968 7.11893 6.83704 6.28864C7.3344 5.45835 8.22162 5.1336 9.03236 5.02117C9.8431 4.90875 11.4964 5.68649 12.7654 4.95375C13.9582 4.26493 14.3277 2.62008 13.6319 1.41486C12.936 0.209646 11.2489 -0.384439 10.0747 0.293439C8.84778 1.00182 8.64718 2.66229 8.14982 3.49258C7.65246 4.32287 7.01905 4.85203 5.99551 4.89058C4.97198 4.92912 3.49043 4.09473 2.2215 4.82747C1.02864 5.51629 0.659157 7.16114 1.35499 8.36636Z" fill="white"/>
<path d="M1.35499 8.36636C2.05082 9.57157 3.73801 10.1657 4.91212 9.48778C6.13907 8.7794 6.33968 7.11893 6.83704 6.28864C7.3344 5.45835 8.22162 5.1336 9.03236 5.02117C9.8431 4.90875 11.4964 5.68649 12.7654 4.95375C13.9582 4.26493 14.3277 2.62008 13.6319 1.41486C12.936 0.209646 11.2489 -0.384439 10.0747 0.293439C8.84778 1.00182 8.64718 2.66229 8.14982 3.49258C7.65246 4.32287 7.01905 4.85203 5.99551 4.89058C4.97198 4.92912 3.49043 4.09473 2.2215 4.82747C1.02864 5.51629 0.659157 7.16114 1.35499 8.36636Z" fill="url(#paint0_linear_0_18)" fill-opacity="0.44" style="mix-blend-mode:plus-lighter"/>
<path d="M13.6323 20.0807C12.9364 21.2859 11.2493 21.88 10.0751 21.2021C8.84819 20.4938 8.64759 18.8333 8.15023 18.003C7.65286 17.1727 6.76565 16.848 5.95491 16.7355C5.14417 16.6231 3.49083 17.4009 2.2219 16.6681C1.02904 15.9793 0.659562 14.3344 1.35539 13.1292C2.05123 11.924 3.73841 11.3299 4.91253 12.0078C6.13948 12.7162 6.34008 14.3767 6.83744 15.2069C7.3348 16.0372 7.96822 16.5664 8.99175 16.6049C10.0153 16.6435 11.4968 15.8091 12.7658 16.5418C13.9586 17.2307 14.3281 18.8755 13.6323 20.0807Z" fill="white"/>
<path d="M13.6323 20.0807C12.9364 21.2859 11.2493 21.88 10.0751 21.2021C8.84819 20.4938 8.64759 18.8333 8.15023 18.003C7.65286 17.1727 6.76565 16.848 5.95491 16.7355C5.14417 16.6231 3.49083 17.4009 2.2219 16.6681C1.02904 15.9793 0.659562 14.3344 1.35539 13.1292C2.05123 11.924 3.73841 11.3299 4.91253 12.0078C6.13948 12.7162 6.34008 14.3767 6.83744 15.2069C7.3348 16.0372 7.96822 16.5664 8.99175 16.6049C10.0153 16.6435 11.4968 15.8091 12.7658 16.5418C13.9586 17.2307 14.3281 18.8755 13.6323 20.0807Z" fill="url(#paint1_linear_0_18)" fill-opacity="0.44" style="mix-blend-mode:plus-lighter"/>
<path d="M17.8394 18.2495C19.2311 18.2495 20.5892 17.0854 20.5892 15.7296C20.5892 14.3128 19.2515 13.3089 18.7811 12.463C18.3107 11.6171 18.4731 10.6864 18.7811 9.92808C19.0891 9.16975 20.5893 8.12679 20.5892 6.66149C20.5891 5.28403 19.3493 4.14163 17.9577 4.14163C16.566 4.14163 15.2079 5.30573 15.2079 6.66149C15.2079 8.07825 16.5456 9.08221 17.016 9.92808C17.4864 10.774 17.6279 11.5871 17.1496 12.4928C16.6712 13.3984 15.2078 14.2643 15.2079 15.7296C15.208 17.1071 16.4477 18.2495 17.8394 18.2495Z" fill="white"/>
<path d="M17.8394 18.2495C19.2311 18.2495 20.5892 17.0854 20.5892 15.7296C20.5892 14.3128 19.2515 13.3089 18.7811 12.463C18.3107 11.6171 18.4731 10.6864 18.7811 9.92808C19.0891 9.16975 20.5893 8.12679 20.5892 6.66149C20.5891 5.28403 19.3493 4.14163 17.9577 4.14163C16.566 4.14163 15.2079 5.30573 15.2079 6.66149C15.2079 8.07825 16.5456 9.08221 17.016 9.92808C17.4864 10.774 17.6279 11.5871 17.1496 12.4928C16.6712 13.3984 15.2078 14.2643 15.2079 15.7296C15.208 17.1071 16.4477 18.2495 17.8394 18.2495Z" fill="url(#paint2_linear_0_18)" fill-opacity="0.44" style="mix-blend-mode:plus-lighter"/>
<defs>
<linearGradient id="paint0_linear_0_18" x1="10.7972" y1="21.4871" x2="10.7972" y2="0.00847174" gradientUnits="userSpaceOnUse">
<stop stop-color="white" stop-opacity="0"/>
<stop offset="1" stop-color="white"/>
</linearGradient>
<linearGradient id="paint1_linear_0_18" x1="10.7972" y1="21.4871" x2="10.7972" y2="0.00847174" gradientUnits="userSpaceOnUse">
<stop stop-color="white" stop-opacity="0"/>
<stop offset="1" stop-color="white"/>
</linearGradient>
<linearGradient id="paint2_linear_0_18" x1="10.7972" y1="21.4871" x2="10.7972" y2="0.00847174" gradientUnits="userSpaceOnUse">
<stop stop-color="white" stop-opacity="0"/>
<stop offset="1" stop-color="white"/>
</linearGradient>
</defs>
</svg>
